<svg xmlns="http://www.w3.org/2000/svg" xmlns:xlink="http://www.w3.org/1999/xlink" viewBox="0 0 537.17 558.5">
  <defs>
    <style>
      .cls-1 {
        fill: url(#linear-gradient);
      }

      .cls-2 {
        fill: url(#linear-gradient-2);
      }

      .cls-3, .cls-4 {
        fill: none;
      }

      .cls-3, .cls-4, .cls-5, .cls-6, .cls-7, .cls-8 {
        stroke: #000;
      }

      .cls-3, .cls-4, .cls-5, .cls-6, .cls-7, .cls-8, .cls-9 {
        stroke-miterlimit: 10;
      }

      .cls-3, .cls-5, .cls-6, .cls-7, .cls-8, .cls-9 {
        stroke-width: 3px;
      }

      .cls-10, .cls-5, .cls-9 {
        fill: #fff;
      }

      .cls-6 {
        fill: url(#linear-gradient-3);
      }

      .cls-8 {
        fill: url(#linear-gradient-4);
      }

      .cls-9 {
        stroke: #fff;
      }

      .cls-11 {
        fill: #42210b;
      }

      .cls-12 {
        fill: url(#linear-gradient-5);
      }
    </style>
    <linearGradient id="linear-gradient" x1="129.03" y1="251.3" x2="566.32" y2="251.3" gradientUnits="userSpaceOnUse">
      <stop offset="0" stop-color="#ff00ea"/>
      <stop offset="0.21" stop-color="#ff11e6"/>
      <stop offset="0.63" stop-color="#ff3edc"/>
      <stop offset="1" stop-color="#ff6ad2"/>
    </linearGradient>
    <linearGradient id="linear-gradient-2" x1="34.06" y1="476.01" x2="234.88" y2="476.01" gradientUnits="userSpaceOnUse">
      <stop offset="0" stop-color="#fff"/>
      <stop offset="0.22" stop-color="#f5f2ee"/>
      <stop offset="0.66" stop-color="#ddd0c1"/>
      <stop offset="1" stop-color="#c7b299"/>
    </linearGradient>
    <linearGradient id="linear-gradient-3" x1="400.71" y1="279.1" x2="444.97" y2="279.1" gradientUnits="userSpaceOnUse">
      <stop offset="0" stop-color="#00ff89"/>
      <stop offset="0.23" stop-color="#00f09a"/>
      <stop offset="0.69" stop-color="#00c9c7"/>
      <stop offset="1" stop-color="#00abe9"/>
    </linearGradient>
    <linearGradient id="linear-gradient-4" x1="234.71" y1="115.1" x2="278.97" y2="115.1" xlink:href="#linear-gradient-3"/>
    <linearGradient id="linear-gradient-5" x1="293.64" y1="254.48" x2="374.27" y2="254.48" xlink:href="#linear-gradient-3"/>
  </defs>
  <title>logo</title>
  <g id="Layer_1" data-name="Layer 1">
    <g>
      <g>
        <path class="cls-1" d="M566.32,176.05a76.29,76.29,0,0,1-14.63,45,76,76,0,0,1,2,17.65,76.81,76.81,0,0,1-40.08,67.44A77,77,0,0,1,415,419.35a77.35,77.35,0,0,1-91.17,29.37,77.16,77.16,0,0,1-136.57-31.34,77.21,77.21,0,0,1-51.38-42.84,76.73,76.73,0,0,1,11.7-81.68,76.68,76.68,0,0,1,22.09-105.51A76.85,76.85,0,0,1,237.59,74.1a77.21,77.21,0,0,1,30.9,6.42,77.29,77.29,0,0,1,112.88-30.9A77.16,77.16,0,0,1,516,100.8c0,1,0,2.08-.06,3.12A76.92,76.92,0,0,1,566.32,176.05Z" transform="translate(-30.65 -22.44)"/>
        <path class="cls-2" d="M234.88,473.48l-200.82,104L135.87,374.54a77.21,77.21,0,0,0,51.38,42.84A77,77,0,0,0,234.88,473.48Z" transform="translate(-30.65 -22.44)"/>
      </g>
      <g>
        <polyline class="cls-3" points="204.23 451.04 3.41 555.04 105.22 352.1"/>
        <path class="cls-3" d="M135.87,374.54a76.73,76.73,0,0,1,11.7-81.68,76.68,76.68,0,0,1,22.09-105.51A76.85,76.85,0,0,1,237.59,74.1a77.21,77.21,0,0,1,30.9,6.42,77.29,77.29,0,0,1,112.88-30.9A77.16,77.16,0,0,1,516,100.8c0,1,0,2.08-.06,3.12A76.78,76.78,0,0,1,551.69,221.1a76,76,0,0,1,2,17.65,76.81,76.81,0,0,1-40.08,67.44A77,77,0,0,1,415,419.35a77.35,77.35,0,0,1-91.17,29.37,77.16,77.16,0,0,1-136.57-31.34A77.21,77.21,0,0,1,135.87,374.54Z" transform="translate(-30.65 -22.44)"/>
      </g>
    </g>
    <path class="cls-4" d="M368.33,155.33" transform="translate(-30.65 -22.44)"/>
  </g>
  <g id="Layer_2" data-name="Layer 2">
    <line class="cls-3" x1="295.87" y1="157.05" x2="374.08" y2="235.26"/>
    <circle class="cls-5" cx="423.09" cy="278.56" r="32.67"/>
    <g>
      <g>
        <path d="M320.41,137a32.5,32.5,0,0,1-1.34,9.26L287.74,137v32.67A32.67,32.67,0,1,1,320.41,137Z" transform="translate(-30.65 -22.44)"/>
        <path d="M287.74,137l31.33,9.26a32.68,32.68,0,0,1-31.33,23.41Z" transform="translate(-30.65 -22.44)"/>
      </g>
      <g>
        <path class="cls-3" d="M287.74,169.67a32.67,32.67,0,1,1,31.33-23.41A32.67,32.67,0,0,1,287.74,169.67Z" transform="translate(-30.65 -22.44)"/>
        <line class="cls-3" x1="257.09" y1="147.23" x2="257.09" y2="114.56"/>
        <line class="cls-3" x1="288.42" y1="123.82" x2="257.09" y2="114.56"/>
      </g>
    </g>
    <circle class="cls-6" cx="422.84" cy="279.1" r="22.13"/>
    <circle class="cls-7" cx="423.28" cy="280.09" r="14.81"/>
    <circle class="cls-5" cx="257.09" cy="114.56" r="32.67"/>
    <circle class="cls-8" cx="256.84" cy="115.1" r="22.13"/>
    <circle class="cls-7" cx="257.28" cy="116.09" r="14.81"/>
    <circle class="cls-9" cx="253.58" cy="103.15" r="7.42"/>
    <circle class="cls-9" cx="420.58" cy="267.15" r="7.42"/>
  </g>
  <g id="Layer_3" data-name="Layer 3">
    <g>
      <g>
        <path class="cls-10" d="M325,179.75l79.52,78.39a56.06,56.06,0,0,1-8.64,7.08l-76.43-78.81A54.59,54.59,0,0,1,325,179.75Z" transform="translate(-30.65 -22.44)"/>
        <path class="cls-11" d="M319.47,186.41l76.43,78.81a55.4,55.4,0,0,1-22.46,8.68v-.09c.57-3.83,1.14-7.7.66-11.53A15.49,15.49,0,0,0,368.71,252c-3.92-3.14-9.39-4.45-14.52-5.68-3.67-5.76-9.32-13.69-14.64-17.41h0a26.78,26.78,0,0,0-2.62-1.48c-8.21-4-18-3.47-27.33-2.34h0a55.74,55.74,0,0,1,9.92-38.68Z" transform="translate(-30.65 -22.44)"/>
        <path class="cls-12" d="M354.19,246.32c5.13,1.23,10.6,2.54,14.52,5.68a15.49,15.49,0,0,1,5.38,10.28c.48,3.83-.09,7.7-.66,11.53v.09a56.07,56.07,0,0,1-24-1.56l-.67-.2c-.95,1.21-2.51,1.85-5.66,3.39l-1.29.64-1.47.71L330,282a52.65,52.65,0,0,1-6.17,2.7l-.23,0-.29,0h-.08c-.57,0-1.14-.07-1.71-.13s-1.16-.12-1.73-.21l-.69-.11c-.34-.06-.68-.12-1-.2a31,31,0,0,1-13.51-6.64c-5-4.8-10.06-13.45-10.8-21.23,0-.33-.05-.65-.07-1,0-.15,0-.3,0-.46,0-.38,0-.76,0-1.14s0-.6,0-.89c.31-12.14,7-22.54,16.55-27.35l-.61.08c0-.12,0-.23,0-.35h0c9.35-1.13,19.12-1.69,27.33,2.34a26.78,26.78,0,0,1,2.62,1.48h0C344.87,232.63,350.52,240.56,354.19,246.32Z" transform="translate(-30.65 -22.44)"/>
      </g>
      <g>
        <path class="cls-3" d="M319.47,186.41a54.59,54.59,0,0,1,5.55-6.66l79.52,78.39a56.06,56.06,0,0,1-8.64,7.08" transform="translate(-30.65 -22.44)"/>
        <path class="cls-3" d="M316.11,267.46c.49-2.76-.1-7.06,1.06-9.65,2.18-4.89,5.38-9.82,10.76-12.13,6.59-2.82,14.62-2.57,21.41-.6,1.54.44,3.18.83,4.85,1.24,5.13,1.23,10.6,2.54,14.52,5.68a15.49,15.49,0,0,1,5.38,10.28c.48,3.83-.09,7.7-.66,11.53" transform="translate(-30.65 -22.44)"/>
        <path class="cls-3" d="M339.55,228.91c5.32,3.72,11,11.65,14.64,17.41.15.23.3.46.44.69" transform="translate(-30.65 -22.44)"/>
        <path class="cls-3" d="M309.59,225.09c9.35-1.13,19.12-1.69,27.33,2.34a26.78,26.78,0,0,1,2.62,1.48" transform="translate(-30.65 -22.44)"/>
        <path class="cls-3" d="M350.39,267c-.48,2.71-.84,4.13-1.62,5.15" transform="translate(-30.65 -22.44)"/>
        <path class="cls-3" d="M323.8,284.66h0l-.12.05-.38,0" transform="translate(-30.65 -22.44)"/>
        <path class="cls-3" d="M307.82,280.12a32.64,32.64,0,0,1-4.58-3.24,32.62,32.62,0,0,1-9.5-20.7c0-.33-.05-.65-.07-1,0-.15,0-.3,0-.46,0-.38,0-.76,0-1.14s0-.6,0-.89c.31-12.14,7-22.54,16.55-27.35l-.61.08c0-.12,0-.23,0-.35a55.74,55.74,0,0,1,9.92-38.68l76.43,78.81a56,56,0,0,1-46.46,7.12l-.67-.2c-.95,1.21-2.51,1.85-5.66,3.39l-1.29.64-1.47.71L330,282a52.65,52.65,0,0,1-6.17,2.7l-.23,0-.29,0" transform="translate(-30.65 -22.44)"/>
        <path class="cls-3" d="M304.54,277.41c-5-4.8-10.06-13.45-10.8-21.23,0-.33-.05-.66-.07-1a13.66,13.66,0,0,0,0,2,13.92,13.92,0,0,0,.51,2.24c.9,3.08,2.68,7.36,3.23,9.31a31.09,31.09,0,0,0,7.16,8.64" transform="translate(-30.65 -22.44)"/>
        <path class="cls-3" d="M318.05,284.05a32.44,32.44,0,0,1-10.23-3.93,25.65,25.65,0,0,1-3.28-2.71,31,31,0,0,0,13.51,6.64c.34.08.68.14,1,.2l.69.11c.57.09,1.15.16,1.73.21s1.14.1,1.71.13h.08" transform="translate(-30.65 -22.44)"/>
      </g>
    </g>
  </g>
</svg>
